<svg width="302" height="60" viewBox="0 0 302 60" fill="none" xmlns="http://www.w3.org/2000/svg">
<path d="M8.67583 1.60174C22.2479 1.52755 29.0621 6.49533 29.1168 16.5021C29.1397 20.6884 27.8893 24.1458 25.3671 26.8758C22.8434 29.6073 19.3712 31.1762 14.9489 31.5856L33.1825 55.8761L25.4127 55.9185L8.08772 32.1287L6.50229 32.1374L6.63285 56.0212L0.297421 56.0558L0 1.64917L8.67583 1.60174ZM6.4731 26.7985L9.26648 26.7832C13.7412 26.7587 17.117 25.9487 19.3952 24.3502C21.6719 22.7487 22.8019 20.2866 22.7837 16.9641C22.764 13.3571 21.6319 10.8277 19.3888 9.37427C17.1442 7.91783 13.9112 7.20115 9.68806 7.22424L6.3662 7.2424L6.4731 26.7985Z" fill="#69734E"/>
<path d="M77.8331 1.22369L77.8639 6.85155L54.7115 6.97812L54.7999 23.1394L77.279 23.0165L77.3098 28.6444L54.8306 28.7673L54.9474 50.1291L78.0998 50.0025L78.1305 55.6304L48.6428 55.7916L48.3453 1.38489L77.8331 1.22369Z" fill="#69734E"/>
<path d="M97.6727 1.11519L114.112 42.5162L130.105 0.937893L136.969 0.900371L114.201 58.6775L90.8088 1.15271L97.6727 1.11519Z" fill="#69734E"/>
<path d="M180.105 0.664607L180.136 6.29247L156.983 6.41903L157.072 22.5803L179.551 22.4574L179.582 28.0853L157.102 28.2082L157.219 49.57L180.372 49.4434L180.402 55.0713L150.915 55.2325L150.617 0.825806L180.105 0.664607Z" fill="#69734E"/>
<path d="M207.035 0.517392C220.607 0.443198 227.421 5.41098 227.476 15.4177C227.499 19.604 226.248 23.0614 223.726 25.7914C221.202 28.5229 217.73 30.0919 213.308 30.5013L231.542 54.7917L223.772 54.8342L206.447 31.0444L204.861 31.0531L204.992 54.9369L198.656 54.9715L198.359 0.564819L207.035 0.517392ZM204.832 25.7141L207.626 25.6988C212.1 25.6744 215.476 24.8644 217.754 23.2659C220.031 21.6643 221.161 19.2023 221.143 15.8797C221.123 12.2728 219.991 9.74335 217.748 8.28991C215.503 6.83348 212.27 6.1168 208.047 6.13989L204.725 6.15805L204.832 25.7141Z" fill="#69734E"/>
<path d="M253.191 0.265049L253.488 54.6717L247.153 54.7064L246.855 0.299683L253.191 0.265049Z" fill="#69734E"/>
<path d="M301.685 -6.57182e-05L301.716 5.6278L278.563 5.75436L278.652 21.9157L301.131 21.7928L301.162 27.4206L278.682 27.5435L278.799 48.9053L301.952 48.7787L301.982 54.4066L272.495 54.5678L272.197 0.161133L301.685 -6.57182e-05Z" fill="#69734E"/>
</svg>
